<?xml version="1.0" encoding="utf-8"?>
<!-- Generator: Adobe Illustrator 24.1.1, SVG Export Plug-In . SVG Version: 6.00 Build 0)  -->
<svg version="1.1" id="Layer_1" xmlns="http://www.w3.org/2000/svg" xmlns:xlink="http://www.w3.org/1999/xlink" x="0px" y="0px"
	 viewBox="0 0 32 32" style="enable-background:new 0 0 32 32;" xml:space="preserve">
<style type="text/css">
	.st0{fill:#FFFFFF;}
</style>
<g id="search">
	<path class="st0" d="M29.7,28.3l-6.5-6.5h-0.1c4.3-5.1,3.7-12.6-1.4-16.9S9.1,1.2,4.8,6.3S1.2,18.9,6.2,23.2c4.5,3.8,11,3.8,15.5,0
		c0,0,0,0,0,0.1l6.5,6.5c0.4,0.4,1,0.4,1.4,0c0,0,0,0,0,0C30.1,29.4,30.1,28.8,29.7,28.3C29.7,28.3,29.7,28.3,29.7,28.3z M14,24
		C8.5,24,4,19.5,4,14S8.5,4,14,4s10,4.5,10,10S19.5,24,14,24z"/>
</g>
</svg>
