<?xml version="1.0" encoding="utf-8"?>
<!-- Generator: Adobe Illustrator 25.0.1, SVG Export Plug-In . SVG Version: 6.00 Build 0)  -->
<svg version="1.1" id="Layer_1" xmlns="http://www.w3.org/2000/svg" xmlns:xlink="http://www.w3.org/1999/xlink" x="0px" y="0px"
	 viewBox="0 0 56.7 56.7" style="enable-background:new 0 0 56.7 56.7;" xml:space="preserve">
<style type="text/css">
	.st0{fill:#FFFFFF;}
</style>
<path class="st0" d="M55.5,14.7c-0.6-2.4-2.6-4.4-5-5c-4.4-1.2-22.2-1.2-22.2-1.2s-17.7,0-22.2,1.2c-2.4,0.6-4.4,2.6-5,5
	C0,19.1,0,28.3,0,28.3S0,37.6,1.2,42c0.6,2.4,2.6,4.4,5,5c4.4,1.2,22.2,1.2,22.2,1.2s17.7,0,22.2-1.2c2.4-0.6,4.4-2.6,5-5
	c1.2-4.4,1.2-13.7,1.2-13.7S56.7,19.1,55.5,14.7L55.5,14.7z M22.7,36.9v-17l14.7,8.5L22.7,36.9L22.7,36.9z"/>
</svg>
