<?xml version="1.0" encoding="UTF-8"?>
<svg width="" height="" viewBox="0 0 192 80" version="1.1" xmlns="http://www.w3.org/2000/svg" xmlns:xlink="http://www.w3.org/1999/xlink">
    <title>logo-footer/donga</title>
    <g id="Symbols" stroke="none" stroke-width="1" fill="none" fill-rule="evenodd">
        <g id="Footer" transform="translate(-360.000000, -56.000000)">
            <g id="dongalogo" transform="translate(360.000000, 56.000000)">
                <rect id="Rectangle" x="0" y="0" width="192" height="80"></rect>
                <path d="M21.593871,33.5437419 L21.593871,46.016 L12.4725806,46.016 L12.4725806,67.0914839 L21.593871,67.0914839 L21.593871,79.5643871 L-0.00032258065,79.5643871 L-0.00032258065,33.5437419 L21.593871,33.5437419 Z M40.6946452,58.3424516 C51.6694839,58.3424516 51.4920645,74.7437419 40.6946452,74.7437419 C29.8062581,74.7437419 29.6327097,58.3424516 40.6946452,58.3424516 Z M106.457226,50.9836129 L106.457226,55.0642581 L99.4385161,55.0642581 L99.4385161,57.9532903 L104.815935,57.9532903 L104.815935,67.2313548 L93.8391613,67.2313548 L93.8391613,69.5139355 L105.350774,69.5139355 L105.350774,73.0545806 L89.2630323,73.0545806 L89.2630323,63.7371613 L100.239806,63.7371613 L100.239806,61.368129 L89.2630323,61.368129 L89.2630323,57.9532903 L94.8185161,57.9532903 L94.8185161,55.0642581 L87.5307742,55.0642581 L87.5307742,50.9836129 L106.457226,50.9836129 Z M40.6946452,62.4334194 C35.2843226,62.4334194 35.2843226,70.5166452 40.6946452,70.5166452 C46.0565806,70.5166452 46.0565806,62.4334194 40.6946452,62.4334194 Z M125.306387,51.2609677 L125.306387,60.0216129 L136.427677,60.0216129 L136.427677,64.1583871 L120.908968,64.1583871 L120.908968,51.2609677 L125.306387,51.2609677 Z M48.6920645,33.5727742 L48.6920645,37.7095484 L37.6752903,37.7095484 L37.6752903,44.419871 L48.6920645,44.419871 L48.6920645,48.5508387 L43.3604516,48.5508387 L43.3604516,51.9979355 L50.3836774,51.9979355 L50.3836774,56.0811613 L31.4946452,56.0811613 L31.4946452,51.9979355 L38.6494839,51.9979355 L38.6494839,48.5508387 L33.2256129,48.5508387 L33.2256129,33.5727742 L48.6920645,33.5727742 Z M79.0041935,32.9968387 L79.0041935,38.9097419 L84.4480645,38.9097419 L84.4480645,43.2226452 L79.0041935,43.2226452 L79.0041935,55.3484516 L74.6022581,55.3484516 L74.6022581,32.9968387 L79.0041935,32.9968387 Z M136.225097,33.0448387 L136.225097,38.9093548 L141.630258,38.9093548 L141.630258,43.0874194 L136.225097,43.0874194 L136.225097,49.5835484 L131.830258,49.5835484 L131.830258,33.0448387 L136.225097,33.0448387 Z M62.3629032,33.1168387 C73.3725806,33.1168387 73.3280645,49.5607097 62.3629032,49.5607097 C51.4493548,49.5607097 51.4003226,33.1168387 62.3629032,33.1168387 Z M127.538645,33.6654839 L127.538645,37.6487097 L125.422516,37.6487097 L125.422516,44.5687097 L127.538645,44.5687097 L127.538645,48.5977419 L111.675419,48.5977419 L111.675419,44.5687097 L113.571548,44.5687097 L113.571548,37.6487097 L111.675419,37.6487097 L111.675419,33.6654839 L127.538645,33.6654839 Z M99.2623871,30.3597419 L99.2623871,34.4352258 L104.815935,34.4352258 L104.815935,38.5087742 L99.6449677,38.5087742 L106.103032,48.5507097 L101.129484,48.5507097 L97.0385161,41.7603871 L92.9088387,48.5507097 L87.8843226,48.5507097 L94.3404516,38.5087742 L89.2630323,38.5087742 L89.2630323,34.4352258 L94.7294839,34.4352258 L94.7294839,30.3597419 L99.2623871,30.3597419 Z M168.351484,0.000129032258 C174.686968,0.000129032258 180.47729,2.58464516 184.623097,6.73625806 C188.772774,10.8891613 191.363742,16.6743226 191.361163,23.0117419 C191.363742,29.3427097 188.772774,35.1330323 184.623097,39.2814194 C180.481161,43.4323871 174.692129,46.0162581 168.363742,46.0162581 L167.089548,46.0162581 L167.089548,33.5433548 L168.351484,33.5433548 C171.281806,33.5433548 173.875355,32.3756129 175.802452,30.460129 C177.716,28.5330323 178.884387,25.9420645 178.889548,23.0117419 C178.884387,20.0820645 177.716,17.4833548 175.802452,15.560129 C173.875355,13.6381935 171.281806,12.4775484 168.351484,12.4698065 L167.089548,12.4698065 L167.089548,0.000129032258 L168.351484,0.000129032258 Z M62.3629032,37.3316774 C56.8816129,37.3316774 57.053871,45.442 62.3629032,45.442 C67.7177419,45.442 67.8467742,37.3316774 62.3629032,37.3316774 Z M121.303161,37.6493548 L117.823806,37.6493548 L117.823806,44.5687097 L121.303161,44.5687097 L121.303161,37.6493548 Z" id="Combined-Shape" fill="#999aa9"></path>
            </g>
        </g>
    </g>
</svg>