<?xml version="1.0" encoding="utf-8"?>
<!-- Generator: Adobe Illustrator 25.0.1, SVG Export Plug-In . SVG Version: 6.00 Build 0)  -->
<svg version="1.1" id="Layer_1" xmlns="http://www.w3.org/2000/svg" xmlns:xlink="http://www.w3.org/1999/xlink" x="0px" y="0px"
	 viewBox="0 0 110 44" style="enable-background:new 0 0 110 44;" xml:space="preserve">
<style type="text/css">
	.st0{filter:url(#gk3jr6ukmb);}
	.st1{fill-rule:evenodd;clip-rule:evenodd;fill:#FFFFFF;}
	.st2{filter:url(#Adobe_OpacityMaskFilter);}
	.st3{mask:url(#_x39_j04dooi1d_2_);fill-rule:evenodd;clip-rule:evenodd;fill:#FFFFFF;}
</style>
<filter  id="gk3jr6ukmb">
	<feColorMatrix  in="SourceGraphic" values="0 0 0 0 1.000000 0 0 0 0 1.000000 0 0 0 0 1.000000 0 0 0 1.000000 0">
		</feColorMatrix>
</filter>
<g>
	<g>
		<g>
			<g transform="translate(-480 -1298) translate(120 1280) translate(0 18)">
				<g transform="translate(360)" class="st0">
					<path class="st1" d="M9.1,39.7c5.3,0,5.3-8,0-8C3.7,31.7,3.7,39.7,9.1,39.7z M9.1,27.7c10.8,0,10.7,16.2,0,16.2
						C-1.7,43.9-1.8,27.7,9.1,27.7z M0,21.4h7.1V18H1.7V3.2H17v4.1H6.1v6.6H17V18h-5.3v3.4h6.9v4H0V21.4z M47,24.7h-4.4V2.6H47v5.8
						h5.4v4.3H47V24.7L47,24.7z M30.5,14.9c5.3,0,5.4-8,0-8C25.1,6.9,25.3,14.9,30.5,14.9z M30.5,2.7c10.9,0,10.8,16.3,0,16.3
						C19.7,19,19.7,2.7,30.5,2.7z M64.8,11.3L60.7,18h-5l6.4-9.9h-5V4h5.4V0H67v4h5.5v4h-5.1l6.4,9.9h-4.9
						C68.8,18,64.8,11.3,64.8,11.3z M67.2,27.3h5.3v9.2H61.6v2.3H73v3.5H57.1V33h10.8v-2.3H57.1v-3.4h5.5v-2.9h-7.2v-4h18.7v4h-6.9
						C67.2,24.4,67.2,27.3,67.2,27.3z"/>
					<g transform="translate(79.072 2.42)">
						<defs>
							<filter id="Adobe_OpacityMaskFilter" filterUnits="userSpaceOnUse" x="0.2" y="0.2" width="29.6" height="30.8">
								<feColorMatrix  type="matrix" values="1 0 0 0 0  0 1 0 0 0  0 0 1 0 0  0 0 0 1 0"/>
							</filter>
						</defs>
						<mask maskUnits="userSpaceOnUse" x="0.2" y="0.2" width="29.6" height="30.8" id="_x39_j04dooi1d_2_">
							<g class="st2">
								<path id="_x37_imzgj7amc_2_" class="st1" d="M0.2,0.2h29.6V31H0.2V0.2z"/>
							</g>
						</mask>
						<path class="st3" d="M24.4,16.6h-4.3V0.2h4.3V6h5.3v4.1h-5.3V16.6z M9.3,18.2h4.3v8.7h11V31H9.3V18.2L9.3,18.2z M6.3,11.6h3.4
							V4.8H6.3C6.3,4.8,6.3,11.6,6.3,11.6z M0.2,11.6h1.9V4.8H0.2V0.8h15.7v3.9h-2.1v6.8h2.1v4H0.2L0.2,11.6L0.2,11.6z"/>
					</g>
				</g>
			</g>
		</g>
	</g>
</g>
</svg>
